<svg width="36" height="36" viewBox="0 0 36 36" fill="none" xmlns="http://www.w3.org/2000/svg">
<circle cx="17.8464" cy="18.0051" r="17.3894" fill="#C11F50"/>
<g clip-path="url(#clip0_321_877)">
<path d="M7.95508 24.4197C8.03751 24.0374 8.08954 23.6469 8.207 23.2745C8.9535 20.9227 10.5093 19.2859 12.7493 18.3174C14.305 17.6452 16.0287 17.464 17.6901 17.798C19.3515 18.132 20.8713 18.9653 22.0463 20.1865C23.1368 21.2957 23.8518 22.7192 24.0905 24.2564C24.3919 26.1265 23.039 27.7797 21.1458 27.858C20.9732 27.8652 20.8011 27.8822 20.6306 27.8951H11.0462C10.8262 27.8565 10.6036 27.8276 10.3862 27.7771C9.25024 27.5128 8.44244 26.8745 8.09263 25.7303C8.03132 25.5294 7.9999 25.3182 7.95508 25.1121V24.4197Z" fill="white"/>
<path d="M16.4938 8.11377C16.7251 8.1622 16.9575 8.20083 17.1872 8.26008C18.2474 8.53527 19.1708 9.18746 19.7847 10.0945C20.3985 11.0016 20.6606 12.1013 20.522 13.1878C20.2551 15.3 18.6673 16.8893 16.5726 17.1475C13.8267 17.4859 11.3981 15.2598 11.4976 12.4964C11.579 10.2384 13.2492 8.42648 15.4974 8.14726C15.5342 8.13924 15.5703 8.12804 15.6051 8.11377H16.4938Z" fill="white"/>
<path d="M27.738 15.5709C27.7138 15.6224 27.6865 15.6708 27.6649 15.7223C27.45 16.2118 27.0755 16.475 26.5423 16.4951C26.2038 16.508 25.8643 16.4951 25.5032 16.4951C25.5032 16.8557 25.5119 17.1963 25.5032 17.5352C25.4872 18.0401 25.2373 18.4111 24.7819 18.6084C24.3265 18.8057 23.8721 18.7423 23.4831 18.4121C23.3505 18.3035 23.2438 18.1666 23.1711 18.0114C23.0983 17.8561 23.0613 17.6866 23.0628 17.5152C23.0597 17.1824 23.0628 16.849 23.0628 16.4951C22.7155 16.4951 22.3894 16.5003 22.0628 16.4951C21.4492 16.4833 20.9258 16.0098 20.8655 15.4189C20.8011 14.7904 21.1793 14.2175 21.7877 14.0882C22.0602 14.03 22.3503 14.0552 22.6326 14.0464C22.7665 14.0418 22.9005 14.0464 23.0617 14.0464C23.0617 13.7023 23.0576 13.3767 23.0617 13.0516C23.0631 12.7856 23.1521 12.5274 23.3148 12.317C23.4776 12.1066 23.7051 11.9556 23.9623 11.8873C24.7103 11.6782 25.4717 12.2227 25.5026 12.9981C25.516 13.3376 25.5026 13.6776 25.5026 14.0464C25.8416 14.0464 26.1616 14.0495 26.4815 14.0464C26.8483 14.0423 27.1754 14.1531 27.4119 14.4333C27.5489 14.5956 27.6319 14.8038 27.739 14.9913L27.738 15.5709Z" fill="white"/>
</g>
<defs>
<clipPath id="clip0_321_877">
<rect width="19.7829" height="19.7829" fill="white" transform="translate(7.95508 8.11377)"/>
</clipPath>
</defs>
</svg>
