<svg width="50" height="50" viewBox="0 0 50 50" fill="none" xmlns="http://www.w3.org/2000/svg">
<circle cx="24.8652" cy="24.7822" r="24.6123" fill="#C11F50"/>
<g clip-path="url(#clip0_321_877)">
<path d="M10.8652 33.8605C10.9819 33.3194 11.0555 32.7667 11.2218 32.2395C12.2784 28.9109 14.4804 26.5943 17.6509 25.2235C19.8526 24.2721 22.2924 24.0156 24.6438 24.4884C26.9953 24.9611 29.1464 26.1405 30.8094 27.8689C32.3529 29.4389 33.3649 31.4537 33.7027 33.6293C34.1293 36.2762 32.2145 38.6161 29.5348 38.7269C29.2905 38.7371 29.047 38.7612 28.8057 38.7794H15.2402C14.9289 38.7247 14.6139 38.6839 14.3062 38.6124C12.6984 38.2384 11.555 37.3349 11.0599 35.7155C10.9732 35.4311 10.9287 35.1321 10.8652 34.8405V33.8605Z" fill="white"/>
<path d="M22.9511 10.7822C23.2785 10.8508 23.6074 10.9055 23.9326 10.9893C25.433 11.3788 26.7401 12.3019 27.6089 13.5857C28.4777 14.8696 28.8487 16.4261 28.6525 17.9638C28.2748 20.9534 26.0275 23.2029 23.0627 23.5682C19.1762 24.0472 15.7389 20.8965 15.8797 16.9852C15.9949 13.7893 18.3588 11.2248 21.5409 10.8296C21.593 10.8183 21.644 10.8024 21.6933 10.7822H22.9511Z" fill="white"/>
<path d="M38.8651 21.3369C38.8308 21.4098 38.7922 21.4783 38.7615 21.5512C38.4575 22.2439 37.9274 22.6166 37.1727 22.645C36.6936 22.6632 36.2131 22.645 35.702 22.645C35.702 23.1554 35.7143 23.6374 35.702 24.1172C35.6793 24.8318 35.3257 25.3568 34.6811 25.636C34.0365 25.9153 33.3934 25.8256 32.8429 25.3582C32.6551 25.2046 32.5042 25.0108 32.4012 24.7911C32.2982 24.5714 32.2458 24.3314 32.2479 24.0887C32.2435 23.6177 32.2479 23.1459 32.2479 22.645C31.7564 22.645 31.2949 22.6523 30.8326 22.645C29.9641 22.6282 29.2233 21.9581 29.138 21.1218C29.0469 20.2322 29.5821 19.4213 30.4432 19.2383C30.8289 19.1559 31.2395 19.1917 31.639 19.1793C31.8286 19.1727 32.0182 19.1793 32.2464 19.1793C32.2464 18.6922 32.2406 18.2313 32.2464 17.7712C32.2484 17.3947 32.3743 17.0293 32.6047 16.7315C32.835 16.4336 33.1571 16.2199 33.521 16.1233C34.5798 15.8273 35.6575 16.598 35.7012 17.6954C35.7202 18.1759 35.7012 18.6572 35.7012 19.1793C36.181 19.1793 36.6338 19.1836 37.0866 19.1793C37.6058 19.1734 38.0688 19.3302 38.4035 19.7269C38.5975 19.9566 38.7149 20.2511 38.8665 20.5166L38.8651 21.3369Z" fill="white"/>
</g>
<defs>
<clipPath id="clip0_321_877">
<rect width="28" height="28" fill="white" transform="translate(10.8652 10.7822)"/>
</clipPath>
</defs>
</svg>
