<svg width="61" height="40" viewBox="0 0 61 40" fill="none" xmlns="http://www.w3.org/2000/svg">
<g clip-path="url(#clip0_605_1528)">
<path d="M61 21.4226C60.8078 22.5191 60.6696 23.6157 60.417 24.6982C58.5918 32.4682 51.8675 38.5902 43.8962 39.7667C33.0178 41.374 23.0068 34.5157 20.8067 23.9447C18.6177 13.4254 25.4484 2.95306 36.0932 0.521788C38.7392 -0.0832954 41.4813 -0.159002 44.1574 0.299136C46.8336 0.757275 49.3894 1.73996 51.6737 3.18908C53.958 4.6382 55.9245 6.52432 57.4568 8.73591C58.9892 10.9475 60.0562 13.4397 60.5949 16.065C60.7665 16.9031 60.8618 17.7553 60.9936 18.6012L61 21.4226ZM23.987 20.0236C23.986 23.2871 24.9669 26.4776 26.8055 29.1911C28.6441 31.9046 31.2577 34.0192 34.3155 35.2672C37.3733 36.5152 40.7378 36.8406 43.9832 36.2021C47.2286 35.5636 50.209 33.9899 52.547 31.6803C54.8851 29.3707 56.4757 26.4289 57.1177 23.2274C57.7596 20.0259 57.4239 16.7085 56.1531 13.6952C54.8823 10.6819 52.7336 8.10809 49.9788 6.29962C47.224 4.49115 43.9871 3.5293 40.6778 3.53581C31.4626 3.55304 23.9647 10.9565 23.987 20.0236Z" fill="#C11F50"/>
<path d="M0 18.25H15.3469V21.7747H0V18.25Z" fill="#C11F50"/>
<path d="M4.2793 11.6725V8.22607H15.3641V11.6725H4.2793Z" fill="#C11F50"/>
<path d="M15.363 28.3496V31.8054H4.29883V28.3496H15.363Z" fill="#C11F50"/>
<path d="M23.9863 20.0235C23.9721 10.9563 31.47 3.55288 40.6851 3.53565C43.9896 3.53379 47.2205 4.49828 49.9692 6.30717C52.7178 8.11605 54.8609 10.6881 56.1273 13.698C57.3937 16.708 57.7265 20.0207 57.0838 23.2172C56.4411 26.4137 54.8517 29.3505 52.5165 31.6562C50.1813 33.9619 47.2052 35.533 43.9646 36.1707C40.724 36.8085 37.3643 36.4843 34.3106 35.2392C31.2568 33.994 28.646 31.8839 26.8083 29.1755C24.9706 26.4671 23.9885 23.2822 23.9863 20.0235ZM46.2339 16.2528C46.3467 14.2163 45.0409 12.1798 43.0171 11.2806C42.6104 11.0989 42.4643 10.8937 42.4897 10.4535C42.5342 9.71878 42.5024 8.98094 42.5024 8.21647H38.9282C38.9282 8.9872 38.8996 9.7266 38.9393 10.4644C38.9631 10.9046 38.8043 11.0989 38.3976 11.2806C37.5879 11.6437 36.8784 12.1931 36.3286 12.8826C35.7788 13.5721 35.4048 14.3817 35.238 15.2432C35.0712 16.1048 35.1164 16.9933 35.3699 17.8341C35.6233 18.6749 36.0777 19.4434 36.6947 20.0752C37.7971 21.2031 39.1585 21.7388 40.7407 21.7811C41.6176 21.8046 42.2562 22.2339 42.5739 23.0438C42.7142 23.3969 42.7482 23.7824 42.672 24.1541C42.5958 24.5258 42.4125 24.868 42.1441 25.1396C41.8757 25.4112 41.5336 25.6008 41.1587 25.6856C40.7839 25.7703 40.3922 25.7467 40.0306 25.6176C39.1839 25.3184 38.7757 24.6557 38.6692 23.8067H35.1586C35.0855 25.8432 36.3817 27.8593 38.3642 28.7287C38.8313 28.9339 38.9599 29.183 38.9361 29.6483C38.8996 30.3626 38.9266 31.0801 38.9266 31.8493H42.5008C42.5008 31.0911 42.5373 30.4096 42.4881 29.7329C42.45 29.194 42.6199 28.9245 43.1394 28.6849C45.2998 27.6932 46.4753 25.522 46.2355 23.097C46.0274 20.9477 44.3753 19.0412 42.172 18.4663C41.6304 18.3515 41.0808 18.2776 40.5278 18.2454C40.0346 18.1987 39.5762 17.9743 39.2402 17.6152C38.9042 17.2561 38.7142 16.7875 38.7066 16.2989C38.6989 15.8104 38.8741 15.3362 39.1987 14.967C39.5232 14.5978 39.9744 14.3596 40.4659 14.2978C41.4381 14.1583 42.4007 14.821 42.6517 15.8032L42.7677 16.2465L46.2339 16.2528Z" fill="white"/>
<path d="M46.2347 16.2531H42.7701L42.6541 15.8097C42.4031 14.8275 41.4405 14.1649 40.4683 14.3043C39.9768 14.3661 39.5256 14.6043 39.2011 14.9735C38.8765 15.3427 38.7013 15.8169 38.709 16.3054C38.7167 16.794 38.9066 17.2626 39.2426 17.6217C39.5786 17.9808 40.037 18.2052 40.5302 18.252C41.0832 18.2841 41.6329 18.358 42.1744 18.4728C44.3777 19.0478 46.0298 20.9542 46.2379 23.1035C46.473 25.5285 45.3022 27.6998 43.1418 28.6914C42.6224 28.9311 42.4524 29.2005 42.4905 29.7394C42.5398 30.4161 42.5032 31.0976 42.5032 31.8558H38.929C38.929 31.0866 38.902 30.3691 38.9385 29.6548C38.9624 29.1848 38.8337 28.9405 38.3666 28.7352C36.3841 27.8658 35.0879 25.8465 35.161 23.8132H38.6717C38.7781 24.6622 39.1863 25.3249 40.033 25.6241C40.3951 25.7533 40.7873 25.7766 41.1626 25.6913C41.5378 25.606 41.8801 25.4157 42.1483 25.1433C42.4165 24.8708 42.5993 24.5278 42.6746 24.1554C42.75 23.783 42.7147 23.3971 42.5731 23.044C42.2554 22.2341 41.62 21.8049 40.7399 21.7814C39.1514 21.7391 37.7964 21.2033 36.6939 20.0754C36.0758 19.4431 35.6207 18.6737 35.367 17.8318C35.1134 16.9899 35.0685 16.1003 35.2362 15.2377C35.4038 14.3751 35.7792 13.5649 36.3306 12.8753C36.882 12.1856 37.5934 11.6366 38.4048 11.2746C38.8114 11.0929 38.9703 10.8986 38.9465 10.4584C38.9068 9.72059 38.9353 8.98119 38.9353 8.21045H42.5096C42.5096 8.97492 42.5413 9.71276 42.4969 10.4475C42.4714 10.8877 42.6176 11.0929 43.0243 11.2746C45.0417 12.1801 46.3475 14.2056 46.2347 16.2531Z" fill="#C11F50"/>
</g>
<defs>
<clipPath id="clip0_605_1528">
<rect width="61" height="40" fill="white"/>
</clipPath>
</defs>
</svg>
