<svg width="50" height="50" viewBox="0 0 50 50" fill="none" xmlns="http://www.w3.org/2000/svg">
<circle cx="24.9888" cy="24.7822" r="24.6123" fill="#C11F50"/>
<g clip-path="url(#clip0_321_887)">
<path d="M41.0001 23.2282V24.8377C40.9775 24.91 40.9608 24.984 40.9501 25.0589C40.7967 26.9927 40.152 28.8577 39.0751 30.4832C36.5376 34.3656 32.8251 36.4788 28.2563 37.1484C25.4917 37.5552 22.6669 37.2439 20.0626 36.2453C19.931 36.2009 19.788 36.2009 19.6564 36.2453C19.2251 36.4358 18.8064 36.6692 18.3689 36.8596C16.2322 37.7512 13.9927 38.3824 11.7001 38.7394C11.5589 38.7761 11.409 38.763 11.2766 38.7024C11.1441 38.6418 11.0374 38.5375 10.9751 38.4077V38.119C11.3528 37.647 11.6973 37.1503 12.0063 36.6323C12.7498 35.0338 13.1964 33.3174 13.3251 31.5643C13.3574 31.3092 13.288 31.0516 13.1314 30.8456C12.2077 29.5137 11.5697 28.0109 11.2564 26.4287C11.1501 25.8759 11.0876 25.3107 11.0001 24.7578V23.2036C11.0626 22.7675 11.1126 22.3313 11.1939 21.9013C11.8177 18.5855 13.7497 15.6465 16.5689 13.7249C19.8332 11.3693 23.898 10.3458 27.9126 10.8684C31.3319 11.2 34.5356 12.6618 37.0001 15.015C38.9038 16.7681 40.213 19.0543 40.7501 21.5635C40.8501 22.1286 40.9126 22.6815 41.0001 23.2282ZM19.0126 26.011C19.4074 26.0086 19.7926 25.8909 20.1194 25.673C20.4461 25.4551 20.6997 25.1467 20.8479 24.787C20.9961 24.4273 21.0323 24.0324 20.9519 23.6525C20.8716 23.2725 20.6782 22.9246 20.3964 22.6527C20.1145 22.3809 19.757 22.1975 19.3689 22.1256C18.9809 22.0538 18.5799 22.0969 18.2168 22.2493C17.8537 22.4017 17.5448 22.6567 17.3293 22.9819C17.1138 23.3071 17.0014 23.6879 17.0063 24.076C17.0162 24.5925 17.2319 25.0847 17.6071 25.4465C17.9822 25.8084 18.487 26.0111 19.0126 26.011ZM32.9626 26.011C33.226 26.0159 33.4878 25.9694 33.7328 25.8743C33.9778 25.7791 34.2012 25.6372 34.3901 25.4567C34.5789 25.2762 34.7295 25.0607 34.8332 24.8227C34.9368 24.5846 34.9914 24.3287 34.9939 24.0698C34.9988 23.6813 34.8864 23.3001 34.671 22.9744C34.4556 22.6486 34.1469 22.3928 33.7837 22.2394C33.4205 22.086 33.0193 22.0418 32.6306 22.1124C32.2419 22.183 31.8832 22.3653 31.5998 22.6361C31.3164 22.9069 31.121 23.2542 31.0383 23.6341C30.9556 24.0141 30.9892 24.4096 31.1351 24.7707C31.2809 25.1318 31.5323 25.4423 31.8576 25.6631C32.1828 25.8838 32.5674 26.0049 32.9626 26.011ZM25.9626 26.011C26.2244 26.0159 26.4846 25.97 26.7284 25.876C26.9722 25.782 27.1948 25.6417 27.3834 25.4631C27.572 25.2846 27.723 25.0712 27.8277 24.8353C27.9325 24.5994 27.9889 24.3456 27.9939 24.0882C27.9988 23.8309 27.9521 23.5751 27.8564 23.3355C27.7608 23.0959 27.6181 22.8772 27.4364 22.6918C27.2548 22.5064 27.0377 22.358 26.7977 22.255C26.5577 22.1521 26.2994 22.0966 26.0376 22.0918C25.5102 22.0867 25.0019 22.2854 24.622 22.645C24.2421 23.0045 24.0211 23.4963 24.0064 24.0145C24.0014 24.2719 24.0481 24.5277 24.1437 24.7673C24.2393 25.0069 24.382 25.2257 24.5637 25.4111C24.7453 25.5965 24.9624 25.7449 25.2024 25.8478C25.4425 25.9508 25.7008 26.0062 25.9626 26.011Z" fill="white"/>
</g>
<defs>
<clipPath id="clip0_321_887">
<rect width="30" height="28" fill="white" transform="translate(11 10.7822)"/>
</clipPath>
</defs>
</svg>
