<svg width="36" height="36" viewBox="0 0 36 36" fill="none" xmlns="http://www.w3.org/2000/svg">
<circle cx="18.3259" cy="18.0051" r="17.3894" fill="#C11F50"/>
<g clip-path="url(#clip0_321_887)">
<path d="M29.6385 16.907V18.0442C29.6225 18.0953 29.6107 18.1475 29.6031 18.2004C29.4947 19.5667 29.0392 20.8845 28.2784 22.0329C26.4856 24.7759 23.8625 26.269 20.6346 26.7421C18.6813 27.0295 16.6854 26.8096 14.8454 26.1041C14.7524 26.0726 14.6514 26.0726 14.5584 26.1041C14.2537 26.2386 13.9578 26.4035 13.6487 26.5381C12.1391 27.168 10.5568 27.614 8.93704 27.8662C8.83725 27.8921 8.73137 27.8829 8.63779 27.8401C8.54422 27.7973 8.46886 27.7236 8.4248 27.6318V27.4278C8.69165 27.0944 8.93508 26.7435 9.15341 26.3775C9.67867 25.2481 9.99422 24.0354 10.0852 22.7968C10.108 22.6165 10.0589 22.4345 9.94827 22.289C9.29567 21.348 8.84493 20.2862 8.62352 19.1683C8.54845 18.7777 8.50429 18.3784 8.44247 17.9878V16.8897C8.48663 16.5815 8.52196 16.2734 8.57936 15.9695C9.02011 13.6268 10.3852 11.5503 12.377 10.1927C14.6834 8.52834 17.5552 7.80517 20.3917 8.17444C22.8075 8.40872 25.0711 9.44155 26.8123 11.1041C28.1574 12.3428 29.0823 13.958 29.4618 15.7308C29.5325 16.1301 29.5766 16.5208 29.6385 16.907ZM14.1036 18.8732C14.3825 18.8714 14.6547 18.7883 14.8855 18.6344C15.1164 18.4804 15.2955 18.2625 15.4003 18.0084C15.505 17.7543 15.5306 17.4753 15.4738 17.2068C15.417 16.9383 15.2804 16.6925 15.0812 16.5004C14.8821 16.3084 14.6295 16.1788 14.3553 16.128C14.0812 16.0773 13.7979 16.1077 13.5413 16.2154C13.2848 16.3231 13.0665 16.5033 12.9143 16.733C12.762 16.9628 12.6826 17.2318 12.6861 17.506C12.693 17.871 12.8454 18.2187 13.1105 18.4744C13.3756 18.73 13.7322 18.8732 14.1036 18.8732ZM23.9597 18.8732C24.1458 18.8766 24.3307 18.8438 24.5038 18.7766C24.6769 18.7093 24.8348 18.6091 24.9682 18.4816C25.1017 18.354 25.2081 18.2018 25.2813 18.0336C25.3545 17.8654 25.3931 17.6846 25.3948 17.5017C25.3983 17.2272 25.3189 16.9579 25.1668 16.7277C25.0146 16.4975 24.7964 16.3168 24.5398 16.2084C24.2832 16.1001 23.9997 16.0688 23.7251 16.1187C23.4505 16.1686 23.1971 16.2973 22.9968 16.4887C22.7966 16.68 22.6585 16.9254 22.6001 17.1938C22.5417 17.4623 22.5655 17.7417 22.6685 17.9968C22.7715 18.252 22.9491 18.4714 23.179 18.6274C23.4088 18.7833 23.6805 18.8689 23.9597 18.8732ZM19.014 18.8732C19.199 18.8766 19.3828 18.8442 19.555 18.7778C19.7273 18.7113 19.8845 18.6122 20.0178 18.4861C20.1511 18.3599 20.2577 18.2092 20.3318 18.0425C20.4058 17.8759 20.4456 17.6965 20.4491 17.5147C20.4526 17.3329 20.4196 17.1521 20.352 16.9829C20.2844 16.8136 20.1836 16.659 20.0553 16.528C19.9269 16.397 19.7736 16.2922 19.604 16.2194C19.4344 16.1467 19.2519 16.1075 19.067 16.1041C18.6943 16.1005 18.3352 16.2409 18.0668 16.495C17.7984 16.749 17.6422 17.0965 17.6318 17.4626C17.6283 17.6444 17.6613 17.8251 17.7288 17.9945C17.7964 18.1638 17.8972 18.3183 18.0256 18.4493C18.1539 18.5803 18.3073 18.6852 18.4769 18.7579C18.6465 18.8306 18.829 18.8698 19.014 18.8732Z" fill="white"/>
</g>
<defs>
<clipPath id="clip0_321_887">
<rect width="21.196" height="19.7829" fill="white" transform="translate(8.44189 8.11377)"/>
</clipPath>
</defs>
</svg>
