<svg width="24" height="25" viewBox="0 0 24 25" fill="none" xmlns="http://www.w3.org/2000/svg">
<g clip-path="url(#clip0_325_3069)">
<path d="M9.11877 8.55654H1.72512C0.773842 8.55654 0 7.7827 0 6.83123V2.39505C0 1.44376 0.773842 0.669922 1.72512 0.669922H9.11877C10.0702 0.669922 10.8441 1.44376 10.8441 2.39505V6.83123C10.8441 7.7827 10.0702 8.55654 9.11877 8.55654ZM1.72512 2.14865C1.5892 2.14865 1.47873 2.25912 1.47873 2.39505V6.83123C1.47873 6.96734 1.5892 7.07781 1.72512 7.07781H9.11877C9.25487 7.07781 9.36535 6.96734 9.36535 6.83123V2.39505C9.36535 2.25912 9.25487 2.14865 9.11877 2.14865H1.72512Z" fill="#C11F50"/>
<path d="M9.11877 24.3294H1.72512C0.773842 24.3294 0 23.5555 0 22.6042V12.2531C0 11.3017 0.773842 10.5278 1.72512 10.5278H9.11877C10.0702 10.5278 10.8441 11.3017 10.8441 12.2531V22.6042C10.8441 23.5555 10.0702 24.3294 9.11877 24.3294ZM1.72512 12.0066C1.5892 12.0066 1.47873 12.117 1.47873 12.2531V22.6042C1.47873 22.7402 1.5892 22.8506 1.72512 22.8506H9.11877C9.25487 22.8506 9.36535 22.7402 9.36535 22.6042V12.2531C9.36535 12.117 9.25487 12.0066 9.11877 12.0066H1.72512Z" fill="#C11F50"/>
<path d="M21.9344 24.3295H14.5407C13.5893 24.3295 12.8154 23.5556 12.8154 22.6044V18.1682C12.8154 17.2167 13.5893 16.4429 14.5407 16.4429H21.9344C22.8857 16.4429 23.6595 17.2167 23.6595 18.1682V22.6044C23.6595 23.5556 22.8857 24.3295 21.9344 24.3295ZM14.5407 17.9216C14.4046 17.9216 14.2942 18.0321 14.2942 18.1682V22.6044C14.2942 22.7403 14.4046 22.8508 14.5407 22.8508H21.9344C22.0703 22.8508 22.1808 22.7403 22.1808 22.6044V18.1682C22.1808 18.0321 22.0703 17.9216 21.9344 17.9216H14.5407Z" fill="#C11F50"/>
<path d="M21.9344 14.4715H14.5407C13.5893 14.4715 12.8154 13.6976 12.8154 12.7462V2.39505C12.8154 1.44376 13.5893 0.669922 14.5407 0.669922H21.9344C22.8857 0.669922 23.6595 1.44376 23.6595 2.39505V12.7462C23.6595 13.6976 22.8857 14.4715 21.9344 14.4715ZM14.5407 2.14865C14.4046 2.14865 14.2942 2.25912 14.2942 2.39505V12.7462C14.2942 12.8823 14.4046 12.9927 14.5407 12.9927H21.9344C22.0703 12.9927 22.1808 12.8823 22.1808 12.7462V2.39505C22.1808 2.25912 22.0703 2.14865 21.9344 2.14865H14.5407Z" fill="#C11F50"/>
</g>
<defs>
<clipPath id="clip0_325_3069">
<rect width="23.6597" height="23.6597" fill="white" transform="translate(0 0.669922)"/>
</clipPath>
</defs>
</svg>
