<svg width="25" height="25" viewBox="0 0 25 25" fill="none" xmlns="http://www.w3.org/2000/svg">
<path d="M22.4176 16.0997C22.261 17.8328 22.0092 19.2411 21.7029 20.4976C21.4987 21.7541 20.2735 22.8013 18.9463 22.8013H17.3127C16.3938 22.8013 15.6791 22.0683 15.6791 21.1259V16.8327C15.6791 15.7856 14.8623 14.9479 13.8413 14.9479H11.493C10.472 14.9479 9.65525 15.7856 9.65525 16.8327V21.1259C9.65525 22.0683 8.94056 22.8013 8.02167 22.8013H6.08179C4.7545 22.8013 3.63142 21.8589 3.32512 20.4976C3.01882 19.1363 2.75325 17.834 2.61043 16.0997C2.42916 13.8987 2.61043 11.8065 2.71252 10.4452C2.71252 9.60755 3.22302 8.76986 3.93771 8.2463L11.0846 3.32483C11.493 3.01069 12.0035 2.80127 12.514 2.80127C13.0245 2.80127 13.6371 3.01069 14.0455 3.32483L21.1924 8.2463C21.9071 8.76986 22.4176 9.60755 22.4176 10.4452C22.5197 11.8065 22.6163 13.9005 22.4176 16.0997Z" fill="#C11F50"/>
</svg>
