<svg width="24" height="24" viewBox="0 0 24 24" fill="none" xmlns="http://www.w3.org/2000/svg">
<circle cx="11.7219" cy="11.7883" r="11.2883" fill="#C11F50"/>
<path d="M7.71464 9.54524C7.71464 10.8613 7.71464 12.7157 7.71464 13.613C7.77446 14.3906 7.83428 15.4076 7.8941 16.1254C7.95392 16.9629 8.67176 17.6209 9.50923 17.6209H13.9359C14.7734 17.6209 15.4912 16.9629 15.551 16.1254C15.6108 15.4076 15.6707 14.3906 15.7305 13.613C15.7903 12.7157 15.7305 10.8613 15.7305 9.54524H7.71464Z" fill="white"/>
<path d="M15.91 7.75065H14.4145L13.9359 6.85335C13.6368 6.31497 13.0984 5.95605 12.5002 5.95605H11.0646C10.4664 5.95605 9.86817 6.31497 9.62889 6.85335L9.03069 7.75065H7.5352C7.29592 7.75065 7.05664 7.98993 7.05664 8.22921C7.05664 8.46848 7.29592 8.70776 7.5352 8.70776H15.91C16.1492 8.70776 16.3885 8.5283 16.3885 8.22921C16.3885 7.93011 16.1492 7.75065 15.91 7.75065ZM10.0476 7.75065L10.3467 7.27209C10.4664 7.03281 10.7056 6.85335 11.0047 6.85335H12.4404C12.7395 6.85335 12.9788 6.97299 13.0984 7.27209L13.3975 7.75065H10.0476Z" fill="white"/>
</svg>
