<svg width="23" height="24" viewBox="0 0 23 24" fill="none" xmlns="http://www.w3.org/2000/svg">
<circle cx="11.5735" cy="11.7883" r="11.2883" fill="#C11F50"/>
<path d="M16.8739 7.28871L16.0875 6.49899C15.3666 5.77508 14.2526 5.77508 13.5317 6.49899L12.2211 7.881L15.5632 11.2373L16.9394 9.85531C17.2671 9.52626 17.4637 9.06559 17.4637 8.60491C17.4637 8.14424 17.2016 7.61776 16.8739 7.28871Z" fill="white"/>
<path d="M14.1215 11.1715L11.5002 8.5391L6.32309 13.7381C5.99543 14.0672 5.79883 14.5278 5.79883 15.0543V17.0944C5.79883 17.3577 5.99543 17.6209 6.32309 17.6209H8.42014C8.87887 17.6209 9.3376 17.4235 9.7308 17.0944L14.9079 11.8954L14.1215 11.1715Z" fill="white"/>
</svg>
