<svg width="24" height="24" viewBox="0 0 24 24" fill="none" xmlns="http://www.w3.org/2000/svg">
<path fill-rule="evenodd" clip-rule="evenodd" d="M8.03961 15.9248C8.03961 16.3449 8.38241 16.6855 8.80528 16.6855H14.9306C15.3535 16.6855 15.6963 16.3449 15.6963 15.9248C15.6963 15.5046 15.3535 15.164 14.9306 15.164H8.80528C8.38241 15.164 8.03961 15.5046 8.03961 15.9248Z" fill="#C11F50"/>
<path fill-rule="evenodd" clip-rule="evenodd" d="M8.03961 11.8674C8.03961 12.2876 8.38241 12.6282 8.80528 12.6282H11.8679C12.2908 12.6282 12.6336 12.2876 12.6336 11.8674C12.6336 11.4472 12.2908 11.1066 11.8679 11.1066H8.80528C8.38241 11.1066 8.03961 11.4472 8.03961 11.8674Z" fill="#C11F50"/>
<path fill-rule="evenodd" clip-rule="evenodd" d="M8.86965 2.83487C9.18723 2.31818 9.74425 1.97754 10.3725 1.97754H13.3634C13.9916 1.97754 14.5487 2.31818 14.8662 2.83487L15.4263 3.74609C15.9796 3.78912 16.5044 3.83542 16.9624 3.87851C18.2961 4.00399 19.3352 5.06077 19.4399 6.38366C19.5806 8.16153 19.7798 11.0538 19.7798 13.197C19.7798 15.2197 19.6026 17.5162 19.4642 19.0039C19.343 20.3067 18.3107 21.3293 17.003 21.4528C15.582 21.5871 13.4699 21.7573 11.8679 21.7573C10.266 21.7573 8.15388 21.5871 6.73291 21.4528C5.42517 21.3293 4.3929 20.3067 4.2717 19.0039C4.13328 17.5162 3.95605 15.2197 3.95605 13.197C3.95605 11.0538 4.15532 8.16152 4.29599 6.38366C4.40067 5.06077 5.43977 4.00399 6.77347 3.87851C7.23151 3.83542 7.75624 3.78912 8.30957 3.74609L8.86965 2.83487ZM7.93614 5.30274C7.57406 5.33297 7.23046 5.36384 6.91782 5.39325C6.32904 5.44865 5.86929 5.91299 5.82262 6.50291C5.68202 8.27988 5.48739 11.1193 5.48739 13.197C5.48739 15.1484 5.65935 17.3893 5.79653 18.8639C5.8497 19.4354 6.29966 19.8835 6.87787 19.9381C8.29546 20.0721 10.3448 20.2357 11.8679 20.2357C13.3911 20.2357 15.4404 20.0721 16.858 19.9381C17.4362 19.8835 17.8862 19.4354 17.9394 18.8639C18.0765 17.3893 18.2485 15.1484 18.2485 13.197C18.2485 11.1193 18.0539 8.27988 17.9133 6.50291C17.8666 5.91299 17.4068 5.44865 16.8181 5.39325C16.5054 5.36384 16.1618 5.33297 15.7997 5.30274C15.7598 5.51841 15.6843 5.72422 15.5787 5.90983C15.2903 6.41704 14.7451 6.82092 14.0439 6.82092H9.69194C8.99082 6.82092 8.44563 6.41704 8.15718 5.90983C8.05161 5.72422 7.97604 5.51841 7.93614 5.30274ZM10.3725 3.49906C10.3181 3.49906 10.2376 3.52847 10.1765 3.62788L9.49595 4.73517C9.48593 4.75148 9.47742 4.76769 9.47022 4.78375C9.41533 4.90625 9.42671 5.04935 9.49039 5.16131C9.55114 5.26814 9.62687 5.29941 9.69194 5.29941H14.0439C14.109 5.29941 14.1847 5.26814 14.2455 5.16131C14.3092 5.04935 14.3206 4.90625 14.2657 4.78376C14.2585 4.76769 14.25 4.75147 14.2399 4.73517L13.5593 3.62788C13.4982 3.52847 13.4178 3.49906 13.3634 3.49906H10.3725Z" fill="#C11F50"/>
</svg>
