<svg width="23" height="24" viewBox="0 0 23 24" fill="none" xmlns="http://www.w3.org/2000/svg">
<circle cx="11.5403" cy="11.7883" r="11.2883" fill="#C11F50"/>
<path fill-rule="evenodd" clip-rule="evenodd" d="M9.2654 11.7884C9.2654 13.0327 10.2839 14.045 11.5415 14.045C12.7933 14.045 13.8118 13.0327 13.8118 11.7884C13.8118 10.5385 12.7933 9.52616 11.5415 9.52616C10.2839 9.52616 9.2654 10.5385 9.2654 11.7884ZM14.8872 8.31591C15.883 9.08508 16.7308 10.2106 17.3397 11.6188C17.3852 11.7263 17.3852 11.8507 17.3397 11.9525C16.122 14.769 13.954 16.4544 11.5414 16.4544H11.5357C9.12878 16.4544 6.96082 14.769 5.74313 11.9525C5.6976 11.8507 5.6976 11.7263 5.74313 11.6188C6.96082 8.8023 9.12878 7.12256 11.5357 7.12256H11.5414C12.7477 7.12256 13.8915 7.54108 14.8872 8.31591ZM11.5418 13.1956C12.3214 13.1956 12.9587 12.5622 12.9587 11.7874C12.9587 11.0069 12.3214 10.3734 11.5418 10.3734C11.4735 10.3734 11.4053 10.3791 11.3427 10.3904C11.3199 11.0125 10.8078 11.5102 10.1762 11.5102H10.1477C10.1307 11.6007 10.1193 11.6912 10.1193 11.7874C10.1193 12.5622 10.7566 13.1956 11.5418 13.1956Z" fill="white"/>
</svg>
