<svg width="24" height="24" viewBox="0 0 24 24" fill="none" xmlns="http://www.w3.org/2000/svg">
<path fill-rule="evenodd" clip-rule="evenodd" d="M12.5761 3.75311C12.1477 3.45815 11.5871 3.45815 11.1587 3.75311L4.09729 8.61565C3.76787 8.84249 3.5673 9.20804 3.55247 9.60056C3.50121 10.9574 3.44688 13.3334 3.59609 15.0199C3.70866 16.2922 4.00828 17.974 4.25165 19.2112C4.36467 19.7857 4.86476 20.2029 5.45914 20.2029H8.74648C8.88653 20.2029 9.00007 20.0869 9.00007 19.9438V15.7989C9.00007 14.7974 9.79481 13.9855 10.7752 13.9855H13.261C14.2413 13.9855 15.0361 14.7974 15.0361 15.7989V19.9438C15.0361 20.0869 15.1496 20.2029 15.2897 20.2029H18.2757C18.87 20.2029 19.3701 19.7857 19.4831 19.2112C19.7265 17.974 20.0261 16.2922 20.1387 15.0199C20.2879 13.3334 20.2336 10.9574 20.1823 9.60056C20.1675 9.20804 19.9669 8.84249 19.6375 8.61565L12.5761 3.75311ZM10.3083 2.46423C11.2506 1.81531 12.4842 1.81531 13.4265 2.46423L20.4879 7.32676C21.2091 7.82335 21.6687 8.6398 21.7027 9.54061C21.7539 10.8959 21.8131 13.3626 21.654 15.1599C21.5335 16.5222 21.2193 18.2745 20.9748 19.5174C20.715 20.8385 19.574 21.7573 18.2757 21.7573H15.2897C14.3093 21.7573 13.5146 20.9454 13.5146 19.9438V15.7989C13.5146 15.6558 13.401 15.5398 13.261 15.5398H10.7752C10.6351 15.5398 10.5216 15.6558 10.5216 15.7989V19.9438C10.5216 20.9454 9.72685 21.7573 8.74648 21.7573H5.45914C4.16083 21.7573 3.01982 20.8385 2.75995 19.5174C2.51547 18.2745 2.20129 16.5222 2.08076 15.1599C1.92174 13.3626 1.98088 10.8959 2.03209 9.54061C2.06612 8.6398 2.52571 7.82335 3.24686 7.32676L10.3083 2.46423Z" fill="#C11F50"/>
</svg>
