<svg width="36" height="36" viewBox="0 0 36 36" fill="none" xmlns="http://www.w3.org/2000/svg">
<circle cx="17.8049" cy="18.0051" r="17.3894" fill="#C11F50"/>
<g clip-path="url(#clip0_321_886)">
<path d="M29.0304 12.6379C28.9707 12.9384 28.9302 13.2412 28.8515 13.5345C28.6208 14.4217 28.1544 15.2301 27.5017 15.8738C26.039 17.3348 24.577 18.7965 23.1159 20.2591C20.8694 22.5125 16.9773 22.3647 14.9597 19.3267C14.948 19.3101 14.9376 19.2925 14.9287 19.2742C15.2677 18.8824 15.6267 18.5083 16.0043 18.1535C16.2323 17.9706 16.5195 17.8778 16.8115 17.8927C17.1034 17.9077 17.3797 18.0293 17.5878 18.2346C18.0763 18.7253 18.7389 19.003 19.4313 19.0072C20.0668 19.0188 20.6809 18.7778 21.1389 18.3371C21.6993 17.8006 22.2431 17.245 22.794 16.6965C23.6859 15.8047 24.585 14.9176 25.4698 14.0186C25.7391 13.7618 25.9486 13.4489 26.0834 13.1021C26.2182 12.7553 26.2749 12.3831 26.2497 12.0119C26.2244 11.6407 26.1177 11.2795 25.9372 10.9542C25.7566 10.6288 25.5067 10.3472 25.2051 10.1293C24.7388 9.78567 24.1677 9.61445 23.5892 9.6449C23.0108 9.67534 22.4608 9.90555 22.0332 10.2962C21.1436 11.1404 20.2875 12.0203 19.4242 12.8883C19.3805 12.9462 19.3178 12.9868 19.2471 13.0029C19.1764 13.019 19.1023 13.0097 19.0378 12.9765C18.1087 12.6166 17.1072 12.4834 16.1164 12.5878C16.0472 12.5878 15.9757 12.5878 15.9041 12.5998C15.9041 12.5998 15.8827 12.5998 15.854 12.5759C15.9137 12.5115 15.9661 12.4495 16.0257 12.3899C17.3112 11.1022 18.6038 9.82647 19.8797 8.53402C20.7413 7.61597 21.9025 7.03584 23.1541 6.89819C23.1887 6.89226 23.2223 6.88184 23.2542 6.86719H24.2082C24.2538 6.88432 24.3009 6.8971 24.3489 6.90534C25.3807 7.04294 26.3512 7.47415 27.1448 8.14762C27.9384 8.82109 28.5217 9.70844 28.8253 10.704C28.9207 11.045 28.9707 11.3955 29.0423 11.7437L29.0304 12.6379Z" fill="white"/>
<path d="M20.3342 23.0204C20.2508 23.1111 20.2078 23.1635 20.1578 23.2136C18.8381 24.5331 17.5177 25.8526 16.1965 27.172C15.7079 27.6732 15.1247 28.0724 14.4807 28.3466C13.8366 28.6207 13.1446 28.7643 12.4446 28.7691C11.7447 28.7738 11.0507 28.6396 10.403 28.3742C9.75534 28.1088 9.16676 27.7176 8.67141 27.2231C8.17607 26.7286 7.7838 26.1407 7.51736 25.4935C7.25091 24.8463 7.11558 24.1526 7.11921 23.4527C7.12284 22.7528 7.26536 22.0606 7.53851 21.4162C7.81166 20.7718 8.21 20.188 8.71045 19.6987C10.1414 18.2679 11.5723 16.8372 13.0032 15.4064C13.4987 14.8959 14.0938 14.4926 14.7515 14.2213C15.4092 13.9501 16.1156 13.8167 16.827 13.8294C17.5383 13.8422 18.2395 14.0008 18.8871 14.2954C19.5347 14.5901 20.1149 15.0145 20.5918 15.5423C20.8017 15.7641 20.9758 16.0193 21.1713 16.2577C21.2548 16.3579 21.2524 16.4294 21.1499 16.5248C20.8708 16.7895 20.6061 17.0685 20.3319 17.338C20.2186 17.46 20.082 17.558 19.93 17.6261C19.7781 17.6943 19.614 17.7311 19.4475 17.7344C19.281 17.7378 19.1156 17.7075 18.961 17.6456C18.8065 17.5836 18.666 17.4911 18.548 17.3737C18.0994 16.9319 17.5069 16.6661 16.8786 16.625C16.5073 16.6048 16.1362 16.6663 15.7913 16.8052C15.4464 16.944 15.1362 17.1568 14.8825 17.4286C13.8872 18.4269 12.8895 19.4245 11.8895 20.4212C11.4817 20.829 11.0667 21.232 10.666 21.6469C10.3335 21.9646 10.0974 22.3696 9.98472 22.8155C9.87209 23.2614 9.88753 23.73 10.0293 24.1674C10.1458 24.6051 10.3832 25.0011 10.7143 25.3102C11.0454 25.6193 11.4567 25.829 11.9014 25.9153C12.2976 26.0198 12.7142 26.0193 13.1102 25.9139C13.5062 25.8085 13.8679 25.6019 14.1598 25.3144C15.0422 24.475 15.8936 23.6023 16.7498 22.7367C16.7946 22.6794 16.8582 22.6399 16.9293 22.625C17.0005 22.6102 17.0746 22.621 17.1385 22.6556C18.0597 23.0109 19.0514 23.1448 20.0337 23.0467C20.1077 23.0348 20.2055 23.03 20.3342 23.0204Z" fill="white"/>
</g>
<defs>
<clipPath id="clip0_321_886">
<rect width="21.9025" height="21.9025" fill="white" transform="translate(7.12793 6.86426)"/>
</clipPath>
</defs>
</svg>
