<svg width="50" height="50" viewBox="0 0 50 50" fill="none" xmlns="http://www.w3.org/2000/svg">
<circle cx="25.1123" cy="24.7827" r="24.6123" fill="#C11F50"/>
<g clip-path="url(#clip0_321_886)">
<path d="M41 17.1852C40.9156 17.6105 40.8582 18.0391 40.7468 18.4543C40.4203 19.71 39.7602 20.8541 38.8363 21.7652C36.766 23.833 34.6969 25.9019 32.6289 27.972C29.4492 31.1614 23.9405 30.9521 21.0849 26.6523C21.0683 26.6288 21.0537 26.6039 21.041 26.5781C21.5208 26.0235 22.0289 25.494 22.5633 24.9918C22.886 24.7329 23.2926 24.6015 23.7058 24.6227C24.119 24.6439 24.51 24.816 24.8046 25.1065C25.496 25.8011 26.4339 26.1941 27.4138 26.2C28.3133 26.2165 29.1825 25.8754 29.8307 25.2517C30.6239 24.4923 31.3935 23.7059 32.1732 22.9296C33.4356 21.6673 34.7082 20.4118 35.9604 19.1394C36.3416 18.776 36.6381 18.3332 36.8289 17.8423C37.0197 17.3514 37.1 16.8246 37.0643 16.2992C37.0285 15.7738 36.8775 15.2627 36.622 14.8022C36.3665 14.3417 36.0127 13.9431 35.5858 13.6347C34.9258 13.1483 34.1175 12.906 33.2988 12.949C32.4801 12.9921 31.7017 13.318 31.0964 13.8709C29.8374 15.0657 28.6256 16.3111 27.4037 17.5396C27.3419 17.6215 27.2531 17.679 27.1531 17.7018C27.053 17.7247 26.9481 17.7115 26.8569 17.6645C25.5419 17.1551 24.1244 16.9665 22.722 17.1144C22.6241 17.1144 22.5228 17.1144 22.4216 17.1312C22.4216 17.1312 22.3912 17.1312 22.3507 17.0975C22.4351 17.0064 22.5093 16.9186 22.5937 16.8342C24.4131 15.0117 26.2426 13.206 28.0484 11.3767C29.2679 10.0774 30.9115 9.25628 32.6829 9.06145C32.7319 9.05306 32.7795 9.03831 32.8247 9.01758H34.1748C34.2394 9.04183 34.306 9.05991 34.374 9.07158C35.8343 9.26633 37.2079 9.87665 38.3312 10.8299C39.4544 11.7831 40.28 13.039 40.7097 14.4481C40.8447 14.9307 40.9156 15.4268 41.0168 15.9196L41 17.1852Z" fill="white"/>
<path d="M28.6929 31.8804C28.5748 32.0086 28.514 32.0829 28.4431 32.1538C26.5754 34.0213 24.7065 35.8888 22.8365 37.7564C22.145 38.4657 21.3195 39.0308 20.408 39.4188C19.4964 39.8068 18.5169 40.0101 17.5263 40.0168C16.5356 40.0235 15.5534 39.8335 14.6367 39.4579C13.7199 39.0823 12.8869 38.5285 12.1858 37.8286C11.4847 37.1287 10.9295 36.2966 10.5524 35.3806C10.1753 34.4646 9.98373 33.4828 9.98887 32.4922C9.99401 31.5016 10.1957 30.5219 10.5823 29.6098C10.9689 28.6978 11.5327 27.8715 12.2411 27.1789C14.2663 25.1539 16.2916 23.1288 18.3168 21.1038C19.0182 20.3813 19.8604 19.8104 20.7913 19.4265C21.7222 19.0425 22.722 18.8538 23.7289 18.8718C24.7357 18.8898 25.7281 19.1143 26.6447 19.5313C27.5612 19.9483 28.3825 20.549 29.0575 21.2962C29.3545 21.61 29.6009 21.9712 29.8777 22.3087C29.9958 22.4504 29.9925 22.5517 29.8473 22.6867C29.4524 23.0613 29.0777 23.4562 28.6896 23.8376C28.5293 24.0104 28.3359 24.1491 28.1208 24.2455C27.9058 24.3419 27.6735 24.394 27.4379 24.3987C27.2023 24.4035 26.9681 24.3607 26.7494 24.273C26.5306 24.1853 26.3318 24.0544 26.1647 23.8882C25.5298 23.2629 24.6912 22.8867 23.8019 22.8284C23.2765 22.7999 22.7512 22.887 22.263 23.0835C21.7749 23.28 21.3358 23.5812 20.9767 23.9658C19.568 25.3789 18.1559 26.7908 16.7405 28.2016C16.1633 28.7787 15.576 29.3491 15.0089 29.9363C14.5383 30.386 14.204 30.9593 14.0446 31.5903C13.8852 32.2214 13.907 32.8846 14.1077 33.5038C14.2727 34.1232 14.6086 34.6837 15.0772 35.1212C15.5458 35.5587 16.128 35.8555 16.7574 35.9777C17.3182 36.1255 17.9078 36.1248 18.4683 35.9757C19.0287 35.8265 19.5407 35.5341 19.9539 35.1272C21.2028 33.9392 22.4079 32.7039 23.6196 31.4787C23.683 31.3977 23.773 31.3417 23.8737 31.3207C23.9745 31.2997 24.0794 31.315 24.1698 31.364C25.4736 31.8668 26.8772 32.0564 28.2676 31.9175C28.3723 31.9006 28.5107 31.8939 28.6929 31.8804Z" fill="white"/>
</g>
<defs>
<clipPath id="clip0_321_886">
<rect width="31" height="31" fill="white" transform="translate(10 9.01416)"/>
</clipPath>
</defs>
</svg>
