<svg width="58" height="58" viewBox="0 0 58 58" fill="none" xmlns="http://www.w3.org/2000/svg">
<g clip-path="url(#clip0_529_3735)">
<path d="M57.459 26.979C57.2542 27.2615 57.0347 27.533 56.8014 27.7924C53.3804 31.2213 49.9575 34.6458 46.5325 38.0658C46.3821 38.2279 46.2183 38.3768 46.0427 38.5111C45.8257 38.6581 45.5638 38.7237 45.3031 38.6966C45.0424 38.6694 44.7997 38.5512 44.6177 38.3627C44.4337 38.1758 44.3237 37.9286 44.3082 37.6668C44.2926 37.405 44.3725 37.1465 44.5331 36.9392C44.6611 36.7812 44.7999 36.6324 44.9487 36.4938C48.2539 33.1886 51.5556 29.879 54.8539 26.5649C55.0717 26.3327 55.2 26.0308 55.2161 25.7128C55.2389 21.0935 55.2389 16.4741 55.2161 11.8547C55.2161 11.5578 55.0677 11.261 54.9949 10.9641L54.7975 10.9344C53.9796 11.7553 53.1513 12.5672 52.3572 13.4118C52.2726 13.5009 52.3572 13.7829 52.4106 13.9625C52.663 14.8077 52.5735 15.7183 52.1612 16.4981C51.7489 17.278 51.0469 17.8647 50.2063 18.1321C49.3722 18.3945 48.4684 18.3177 47.6905 17.9185C46.9126 17.5193 46.3232 16.8297 46.0501 15.9991C45.6315 14.721 45.9016 13.5617 46.8368 12.6103C47.772 11.6588 48.9312 11.3663 50.2078 11.776C50.5774 11.8948 50.7704 11.8221 51.0168 11.5682C51.7248 10.8364 52.4581 10.1299 53.325 9.27041C52.9346 9.12197 52.66 8.94385 52.3839 8.94385C47.7081 8.92603 43.0333 8.92603 38.3595 8.94385C38.0939 8.9551 37.8409 9.0603 37.6455 9.24072C28.2178 18.6497 18.797 28.0656 9.38305 37.4884C8.44047 38.4324 8.43602 39.4181 9.37414 40.3503C14.1865 45.1675 19.0008 49.9814 23.8171 54.7917C24.727 55.7017 25.7186 55.6987 26.6374 54.7784C30.1574 51.2664 33.6734 47.7533 37.1854 44.2393C37.3041 44.1221 37.4184 43.9988 37.5446 43.8905C38.0478 43.4571 38.6609 43.463 39.0958 43.8994C39.5307 44.3358 39.5277 44.9637 39.1077 45.455C39.0008 45.5827 38.8761 45.6955 38.7588 45.8142C35.4264 49.1452 32.0791 52.4672 28.7705 55.8174C27.9214 56.6754 27.0382 57.428 25.827 57.6922H24.6023C23.6847 57.4618 22.8462 56.9879 22.1754 56.3206C17.4115 51.535 12.6343 46.7519 7.84375 41.9712C5.99867 40.1246 5.99273 37.7645 7.83039 35.9209C9.76799 33.9783 11.7076 32.0382 13.6491 30.1006C13.7842 29.9656 13.9163 29.826 14.1642 29.5722H13.4042C10.4755 29.5722 7.54688 29.5796 4.6182 29.5722C2.5282 29.5648 1.08094 28.4233 0.549531 26.3971C0.525527 26.3282 0.495217 26.2616 0.458984 26.1982V4.04541C0.746953 3.15479 1.05273 2.26416 1.85281 1.71197C2.44656 1.3008 3.14719 1.0351 3.79883 0.705566H45.8809C46.1615 0.911937 46.4315 1.1324 46.6898 1.36611C48.3227 2.98408 49.9555 4.60354 51.5601 6.24229C51.8941 6.58369 52.228 6.79002 52.7149 6.72025C53.036 6.65999 53.3677 6.69265 53.6708 6.8144C53.974 6.93615 54.2362 7.14192 54.4264 7.40752C54.5266 7.51982 54.6369 7.62267 54.7559 7.71479C55.2295 7.37635 55.6332 6.9533 56.126 6.76775C56.742 6.53619 57.1487 6.99932 57.462 7.49658V8.16455L56.46 9.36392L57.462 10.6138L57.459 26.979ZM48.9075 6.71729C47.6888 5.50158 46.5889 4.37939 45.4534 3.2958C45.2163 3.08281 44.9123 2.95942 44.5939 2.94697C31.3137 2.92916 18.032 2.92421 4.74883 2.93213C3.38766 2.93213 2.68703 3.62682 2.68555 4.9776V25.2898C2.68555 26.6599 3.36391 27.3486 4.72508 27.3486C8.45383 27.3486 12.1826 27.3575 15.9113 27.3353C16.2125 27.3231 16.5001 27.2066 16.7248 27.0057C17.9791 25.7945 19.2022 24.552 20.4357 23.317C20.5455 23.2072 20.642 23.0825 20.7667 22.94C18.3917 22.6921 17.0973 21.4556 17.1255 19.5171C17.1321 18.6833 17.4542 17.8829 18.027 17.277C18.5999 16.6711 19.3809 16.3047 20.213 16.2514C21.0362 16.1737 21.8571 16.4209 22.5005 16.9402C23.4386 17.6824 23.8216 18.6799 23.8824 19.9089C24.0724 19.7842 24.1659 19.5972 24.307 19.4636C28.3167 15.4459 32.3246 11.4287 36.3304 7.41197C36.5403 7.18128 36.7982 6.9993 37.0859 6.87879C37.3736 6.75827 37.6842 6.70213 37.9959 6.71432C41.5762 6.73213 45.1595 6.71729 48.9075 6.71729ZM50.334 14.9778C50.3321 14.6903 50.2217 14.414 50.0249 14.2043C49.8282 13.9946 49.5595 13.8669 49.2727 13.8467C49.0521 13.837 48.8337 13.8933 48.6453 14.0083C48.4569 14.1234 48.3071 14.2919 48.2149 14.4925C48.1228 14.6931 48.0925 14.9166 48.128 15.1345C48.1635 15.3524 48.2632 15.5547 48.4142 15.7157C48.5653 15.8767 48.7609 15.989 48.976 16.0383C49.1912 16.0876 49.4162 16.0716 49.6222 15.9924C49.8283 15.9132 50.0061 15.7744 50.1328 15.5936C50.2596 15.4129 50.3296 15.1985 50.334 14.9778ZM20.458 20.6645C20.602 20.6653 20.7447 20.6376 20.878 20.5832C21.0113 20.5288 21.1326 20.4486 21.2348 20.3473C21.3371 20.246 21.4185 20.1255 21.4741 19.9927C21.5298 19.8599 21.5588 19.7174 21.5594 19.5735C21.5598 19.2828 21.4463 19.0035 21.2431 18.7957C21.04 18.5878 20.7634 18.4679 20.4728 18.4617C20.3243 18.458 20.1766 18.4846 20.0388 18.5399C19.9009 18.5952 19.7758 18.678 19.671 18.7834C19.5663 18.8887 19.4841 19.0142 19.4295 19.1524C19.3749 19.2905 19.3491 19.4383 19.3536 19.5868C19.3533 19.7307 19.3819 19.8731 19.4377 20.0057C19.4934 20.1383 19.5752 20.2584 19.6782 20.3589C19.7811 20.4594 19.9032 20.5382 20.0371 20.5907C20.1711 20.6431 20.3142 20.6682 20.458 20.6645Z" fill="#C11F50"/>
<path d="M0.458984 26.1997C0.495217 26.2631 0.525527 26.3297 0.549531 26.3986C1.08094 28.4248 2.5282 29.5663 4.6182 29.5737C7.54688 29.5841 10.4755 29.5737 13.4042 29.5737H14.1642C13.9163 29.8275 13.7842 29.9671 13.6491 30.1021C11.7105 32.0417 9.77096 33.9818 7.83039 35.9224C5.99273 37.766 5.99867 40.1261 7.84375 41.9727C12.6264 46.7583 17.4086 51.5444 22.1902 56.331C22.8607 56.9994 23.6992 57.4743 24.6172 57.7056H0.458984V26.1997Z" fill="white"/>
<path d="M57.459 7.49658C57.1488 6.99932 56.742 6.53619 56.123 6.76775C55.6302 6.9533 55.2324 7.37635 54.753 7.71479C54.6339 7.62267 54.5236 7.51982 54.4234 7.40752C54.233 7.1414 53.9703 6.9353 53.6666 6.81352C53.3628 6.69175 53.0305 6.65939 52.709 6.72025C52.2221 6.79002 51.8881 6.58369 51.5541 6.24229C49.9451 4.60947 48.3152 2.97666 46.6839 1.36611C46.4275 1.13256 46.1595 0.912098 45.8809 0.705566H57.459V7.49658Z" fill="white"/>
<path d="M3.79883 0.705566C3.14719 1.0351 2.44953 1.29932 1.85281 1.71197C1.0557 2.25822 0.746953 3.16072 0.458984 4.04541V0.705566H3.79883Z" fill="white"/>
<path d="M57.459 10.6138L56.457 9.36392L57.459 8.16455V10.6138Z" fill="white"/>
<path d="M35.4345 35.646C35.4508 36.4877 34.6136 37.0681 33.8551 36.645C33.2732 36.3199 32.9481 36.4491 32.5667 36.9048C32.1946 37.3429 31.7876 37.7499 31.3495 38.122C30.9784 38.4367 30.9042 38.7039 31.1624 39.1506C31.5484 39.8335 31.3109 40.5103 30.6785 40.7835C30.0848 41.0403 29.5296 40.8087 29.1808 40.1274C28.1338 38.0868 27.0918 36.0429 26.0547 33.9954C25.7267 33.3527 25.3927 32.7129 25.0735 32.0657C24.7871 31.4898 24.8375 30.9985 25.222 30.6378C25.6673 30.2251 26.1393 30.2474 26.6544 30.5116C29.3263 31.8762 31.9981 33.2349 34.67 34.5877C35.1064 34.8089 35.4285 35.1117 35.4345 35.646ZM28.7043 34.0548L28.6286 34.1394L29.7686 36.3764L31.0378 35.2467L28.7043 34.0548Z" fill="#C11F50"/>
<path d="M17.4512 39.7625C17.4507 38.9151 17.7797 38.1007 18.3685 37.4914C18.8806 36.954 19.4076 36.43 19.939 35.9135C20.4704 35.3969 21.1265 35.388 21.5718 35.8318C22.0171 36.2757 22.0171 36.9392 21.5154 37.4647C21.0552 37.9471 20.5684 38.4057 20.1023 38.8852C19.5991 39.4032 19.5575 40.0727 19.988 40.518C20.4184 40.9633 21.0508 40.9945 21.6208 40.5017C22.7563 39.5205 24.024 39.2622 25.3852 39.9079C26.6573 40.5165 27.2792 41.5927 27.2718 42.9999C27.2711 43.8086 26.9547 44.5851 26.3901 45.1641C25.8676 45.7178 25.3273 46.2536 24.7795 46.7806C24.2704 47.2704 23.5816 47.2764 23.1467 46.8192C22.7118 46.362 22.7252 45.7297 23.2061 45.2265C23.6514 44.7574 24.1249 44.3091 24.5791 43.8445C25.1447 43.2656 25.21 42.6659 24.7691 42.1716C24.309 41.655 23.6959 41.6699 23.0517 42.2117C21.0434 43.8979 18.1533 43.0118 17.5521 40.518C17.5047 40.2682 17.471 40.016 17.4512 39.7625Z" fill="#C11F50"/>
<path d="M38.4238 20.4999L40.0655 22.1609C40.4633 21.7334 40.8507 21.2955 41.2634 20.8814C41.8349 20.3054 42.4984 20.2476 42.9778 20.7092C43.4573 21.1708 43.4321 21.8581 42.8294 22.4593C42.4242 22.8615 41.9893 23.2356 41.5766 23.6141L43.2554 25.2751C43.6532 24.8506 44.0585 24.3934 44.4919 23.9644C45.0411 23.4211 45.6943 23.4018 46.1618 23.8843C46.5968 24.337 46.5685 25.0094 46.0668 25.5171C45.3949 26.2098 44.7131 26.8906 44.0214 27.5596C43.4558 28.1088 42.865 28.1192 42.3099 27.5685C40.2377 25.522 38.1779 23.4662 36.1304 21.4009C35.5975 20.8651 35.602 20.2713 36.1304 19.731C36.8231 19.0126 37.5312 18.305 38.2546 17.6083C38.74 17.1393 39.4153 17.1393 39.8488 17.5727C40.2822 18.0061 40.3015 18.6682 39.8235 19.1669C39.3708 19.633 38.8854 20.062 38.4238 20.4999Z" fill="#C11F50"/>
<path d="M37.4563 31.061C38.0813 30.4079 38.583 29.8646 39.1055 29.3436C39.6666 28.7825 40.293 28.7499 40.7739 29.213C41.2549 29.6761 41.2192 30.3589 40.6581 30.9245C39.9041 31.6904 39.1446 32.4504 38.3796 33.2045C37.7755 33.7982 37.1921 33.7982 36.5865 33.1971C34.5697 31.1843 32.5525 29.167 30.5347 27.1453C29.9617 26.5693 29.9276 25.9147 30.4219 25.4382C30.9162 24.9617 31.5277 25.0018 32.0918 25.5614C33.7335 27.1942 35.3708 28.832 37.0036 30.4747C37.1646 30.6621 37.3157 30.8579 37.4563 31.061Z" fill="#C11F50"/>
<path d="M41.8734 42.2489C41.7293 42.2506 41.5863 42.2239 41.4526 42.1701C41.3189 42.1164 41.1972 42.0367 41.0944 41.9357C40.9916 41.8347 40.9098 41.7144 40.8537 41.5817C40.7976 41.4489 40.7684 41.3064 40.7676 41.1623C40.7681 41.0161 40.7973 40.8714 40.8537 40.7366C40.9101 40.6017 40.9926 40.4792 41.0963 40.3762C41.2 40.2732 41.323 40.1916 41.4583 40.1361C41.5935 40.0806 41.7384 40.0523 41.8846 40.0527C42.0308 40.0532 42.1754 40.0825 42.3103 40.1389C42.4452 40.1953 42.5677 40.2777 42.6707 40.3814C42.7737 40.4852 42.8553 40.6082 42.9108 40.7434C42.9663 40.8787 42.9946 41.0235 42.9941 41.1697C42.992 41.3144 42.9613 41.4571 42.9037 41.5898C42.8461 41.7225 42.7628 41.8425 42.6586 41.9428C42.5544 42.0431 42.4314 42.1218 42.2966 42.1744C42.1619 42.2269 42.018 42.2522 41.8734 42.2489Z" fill="#C11F50"/>
<path d="M50.3346 14.9778C50.33 15.1981 50.2598 15.412 50.1331 15.5922C50.0064 15.7725 49.8289 15.9109 49.6232 15.9898C49.4174 16.0687 49.1929 16.0846 48.9781 16.0353C48.7634 15.986 48.5682 15.8739 48.4174 15.7133C48.2667 15.5526 48.1672 15.3506 48.1317 15.1332C48.0962 14.9157 48.1263 14.6927 48.2181 14.4924C48.3099 14.2921 48.4593 14.1237 48.6473 14.0087C48.8352 13.8937 49.0531 13.8373 49.2733 13.8467C49.5601 13.8669 49.8288 13.9946 50.0256 14.2043C50.2223 14.414 50.3327 14.6902 50.3346 14.9778Z" fill="white"/>
<path d="M20.4584 20.6646C20.3146 20.6683 20.1715 20.6432 20.0375 20.5908C19.9036 20.5383 19.7816 20.4595 19.6786 20.359C19.5756 20.2585 19.4939 20.1384 19.4381 20.0058C19.3824 19.8732 19.3538 19.7308 19.354 19.5869C19.3495 19.4385 19.3754 19.2906 19.4299 19.1525C19.4845 19.0143 19.5667 18.8888 19.6715 18.7835C19.7762 18.6781 19.9013 18.5953 20.0392 18.54C20.1771 18.4847 20.3247 18.4581 20.4732 18.4618C20.7638 18.468 21.0404 18.5879 21.2436 18.7958C21.4467 19.0037 21.5603 19.2829 21.5598 19.5736C21.5592 19.7175 21.5303 19.86 21.4746 19.9928C21.4189 20.1256 21.3376 20.2461 21.2353 20.3474C21.133 20.4487 21.0117 20.5289 20.8784 20.5833C20.7451 20.6377 20.6024 20.6654 20.4584 20.6646Z" fill="white"/>
<path d="M28.7046 34.0552L31.044 35.2427L29.7689 36.3723L28.6289 34.1353L28.7046 34.0552Z" fill="white"/>
<path d="M20.0803 9.01815C20.0215 9.20379 19.948 9.38447 19.8606 9.55846C17.5271 13.7058 15.1892 17.8502 12.8469 21.9916C12.4728 22.6521 11.8286 22.8629 11.2616 22.5378C10.6946 22.2128 10.5357 21.5774 10.9172 20.905C13.2596 16.7409 15.6069 12.5806 17.9591 8.4244C18.2857 7.84698 18.7607 7.64362 19.295 7.8069C19.7967 7.9583 20.0936 8.36651 20.0803 9.01815Z" fill="#C11F50"/>
<path d="M14.3837 10.7043C14.3875 11.3655 14.1949 12.0128 13.8304 12.5644C13.4658 13.116 12.9457 13.5468 12.336 13.8024C11.7262 14.058 11.0543 14.1268 10.4054 14.0001C9.75653 13.8733 9.15989 13.5567 8.69114 13.0905C8.22239 12.6243 7.90264 12.0293 7.77242 11.3811C7.64221 10.7329 7.70739 10.0607 7.95972 9.44955C8.21204 8.83844 8.64014 8.31602 9.18973 7.94852C9.73933 7.58101 10.3857 7.38497 11.0468 7.38526C11.929 7.38446 12.7755 7.73333 13.4009 8.35543C14.0264 8.97754 14.3798 9.82217 14.3837 10.7043ZM11.0795 9.61182C10.7842 9.60493 10.4983 9.71561 10.2847 9.91952C10.071 10.1234 9.94711 10.4039 9.94022 10.6991C9.93333 10.9944 10.044 11.2803 10.2479 11.4939C10.4518 11.7076 10.7323 11.8315 11.0275 11.8384C11.1737 11.8418 11.3192 11.8164 11.4555 11.7636C11.5919 11.7108 11.7165 11.6316 11.8223 11.5307C11.9281 11.4297 12.013 11.3089 12.0721 11.1751C12.1312 11.0414 12.1634 10.8973 12.1668 10.7511C12.1702 10.6049 12.1448 10.4594 12.092 10.3231C12.0392 10.1867 11.96 10.062 11.8591 9.95626C11.7581 9.85047 11.6373 9.7656 11.5035 9.7065C11.3698 9.6474 11.2257 9.61523 11.0795 9.61182Z" fill="#C11F50"/>
<path d="M11.079 9.61163C11.2252 9.61504 11.3693 9.64722 11.5031 9.70632C11.6368 9.76542 11.7576 9.85028 11.8586 9.95607C11.9596 10.0619 12.0387 10.1865 12.0915 10.3229C12.1443 10.4593 12.1697 10.6047 12.1663 10.7509C12.1629 10.8971 12.1307 11.0412 12.0716 11.1749C12.0125 11.3087 11.9277 11.4295 11.8219 11.5305C11.7161 11.6315 11.5914 11.7106 11.4551 11.7634C11.3187 11.8162 11.1733 11.8416 11.0271 11.8382C10.7318 11.8313 10.4514 11.7074 10.2475 11.4938C10.0436 11.2801 9.93287 10.9942 9.93976 10.6989C9.94665 10.4037 10.0705 10.1232 10.2842 9.91934C10.4979 9.71543 10.7838 9.60474 11.079 9.61163Z" fill="white"/>
</g>
<defs>
<clipPath id="clip0_529_3735">
<rect width="57" height="57" fill="white" transform="translate(0.458984 0.705566)"/>
</clipPath>
</defs>
</svg>
