<svg width="24" height="25" viewBox="0 0 24 25" fill="none" xmlns="http://www.w3.org/2000/svg">
<g clip-path="url(#clip0_325_3064)">
<path d="M22.9259 8.67731L17.553 3.40207C17.1097 2.9668 16.66 2.74609 16.2165 2.74609C15.6076 2.74609 14.8966 3.2008 14.8966 4.48229V6.27826C10.993 6.4453 7.34758 8.0171 4.56717 10.7468C1.62228 13.6379 0.000324519 17.482 8.41883e-09 21.5708C-4.63503e-05 21.8646 0.191369 22.1255 0.475177 22.2185C0.547589 22.2422 0.621809 22.2537 0.695288 22.2537C0.90979 22.2537 1.11743 22.156 1.25136 21.981C4.53435 17.6904 9.47716 15.1548 14.8966 14.9546V16.7229C14.8966 18.0043 15.6076 18.4591 16.2165 18.4591H16.2165C16.66 18.4591 17.1097 18.2384 17.553 17.8031L22.9259 12.5279C23.4481 12.0153 23.7357 11.3315 23.7357 10.6026C23.7357 9.87369 23.4481 9.18995 22.9259 8.67731ZM21.9425 11.5623L16.5696 16.8377C16.4665 16.9388 16.3812 17.0027 16.3182 17.0416C16.3017 16.9704 16.2873 16.866 16.2873 16.7229V14.2591C16.2873 13.882 15.976 13.5764 15.592 13.5764C12.5023 13.5764 9.54994 14.2714 6.81705 15.642C4.85515 16.6261 3.06172 17.9507 1.54296 19.5281C2.5533 12.8056 8.46876 7.62889 15.592 7.62889C15.976 7.62889 16.2873 7.32321 16.2873 6.94616V4.48229C16.2873 4.33924 16.3017 4.23478 16.3182 4.16368C16.3811 4.20251 16.4665 4.26641 16.5696 4.36759L21.9425 9.64288C22.202 9.89763 22.3449 10.2385 22.3449 10.6026C22.3449 10.9668 22.202 11.3076 21.9425 11.5623Z" fill="#C11F50"/>
</g>
<defs>
<clipPath id="clip0_325_3064">
<rect width="23.7357" height="23.3041" fill="white" transform="translate(0 0.848145)"/>
</clipPath>
</defs>
</svg>
