<svg width="24" height="25" viewBox="0 0 24 25" fill="none" xmlns="http://www.w3.org/2000/svg">
<path fill-rule="evenodd" clip-rule="evenodd" d="M11.2526 6.45355C9.56209 4.69181 6.71527 4.66663 4.86842 6.47101C4.86257 6.47673 4.85663 6.48235 4.8506 6.48787C3.05881 8.12905 3.03234 10.8758 4.86842 12.6697L4.87325 12.6744L11.8055 19.5682L18.8664 12.6697C18.8722 12.6639 18.8782 12.6583 18.8842 12.6528C20.676 11.0116 20.7025 8.26488 18.8664 6.47101C17.0294 4.67631 14.1686 4.67631 12.3316 6.47101C12.1865 6.61278 11.991 6.69065 11.7885 6.68737C11.5859 6.68409 11.3931 6.59994 11.2526 6.45355ZM11.8145 4.90273C9.48856 3.00956 6.05505 3.18969 3.81545 5.36952C1.35252 7.63467 1.38104 11.3902 3.80421 13.7602C3.80504 13.761 3.80586 13.7618 3.80669 13.7626L11.2651 21.1797C11.5598 21.4727 12.0343 21.4749 12.3316 21.1844L19.9196 13.7709C22.3831 11.505 22.3536 7.74783 19.9281 5.37807C17.6751 3.17688 14.238 3.01843 11.8145 4.90273Z" fill="#C11F50"/>
</svg>
