<svg width="49" height="46" viewBox="0 0 49 46" fill="none" xmlns="http://www.w3.org/2000/svg">
<g clip-path="url(#clip0_529_3647)">
<path d="M39.8827 22.2851V39.1959C39.8827 43.218 37.1934 45.9879 33.2993 45.9879H15.6703C11.7877 45.9879 9.10406 43.2017 9.10406 39.1708C9.10406 33.7745 9.10406 28.3768 9.10406 22.9776V22.2895C8.68867 22.1862 8.29469 22.0991 7.905 21.9942C2.90893 20.5709 -0.297122 15.7928 0.0240537 10.2381C0.309543 5.27542 4.2807 0.870918 9.14973 0.131173C9.71364 0.0460947 10.2828 0.0036548 10.8527 0.00419131C19.9512 -0.00269919 29.0503 -0.00269919 38.1498 0.00419131C43.7625 0.0145271 48.4474 4.41017 48.9541 10.0904C49.4723 15.9212 45.7681 21.0345 40.1824 22.2157L39.8827 22.2851ZM12.5242 13.0007V13.6311C12.5242 22.1596 12.5242 30.6876 12.5242 39.2151C12.5242 41.2689 13.6847 42.4635 15.6817 42.4635H33.3064C35.3049 42.4635 36.4625 41.2675 36.4625 39.2151V13.0007H12.5242ZM39.8827 18.6499C40.0939 18.5982 40.2324 18.5731 40.3666 18.5303C43.8039 17.4421 46.0436 13.8054 45.5197 10.1746C44.9715 6.37987 41.9382 3.55969 38.2939 3.55083C29.1026 3.53016 19.9127 3.51539 10.7228 3.56117C7.81078 3.57593 5.58397 5.02146 4.25073 7.69547C2.9175 10.3695 3.10878 13.0774 4.75034 15.5964C5.78239 17.1822 7.24409 18.1789 9.10406 18.6646V11.5979C9.10406 10.0653 9.72499 9.4304 11.2252 9.4304H37.7758C39.2617 9.4304 39.877 10.0727 39.877 11.6201L39.8827 18.6499Z" fill="#C11F50"/>
<path d="M22.7815 30.412C22.7815 27.2434 22.7815 24.1131 22.7815 20.9829C22.7709 20.7438 22.7848 20.5043 22.823 20.2682C23.0099 19.372 23.7822 18.8138 24.6786 18.898C25.0994 18.9438 25.4882 19.1513 25.7681 19.4794C26.048 19.8075 26.1987 20.2323 26.1903 20.6699C26.2003 23.3409 26.1903 26.012 26.1903 28.683V30.5685C26.7613 29.9617 27.2195 29.4626 27.692 28.9768C28.4985 28.1455 29.5362 28.0909 30.2485 28.8292C30.9608 29.5675 30.908 30.6394 30.1058 31.4796C29.2036 32.4216 28.3001 33.3636 27.3851 34.2924C25.6836 36.017 23.314 36.0317 21.6053 34.3175C20.6589 33.3695 19.7354 32.398 18.809 31.4264C18.0439 30.6247 18.0153 29.5394 18.7233 28.8189C19.4313 28.0983 20.4363 28.1441 21.2042 28.906C21.691 29.3917 22.1692 29.8879 22.6517 30.3825C22.6716 30.3899 22.6916 30.3884 22.7815 30.412Z" fill="#C11F50"/>
</g>
<defs>
<clipPath id="clip0_529_3647">
<rect width="49" height="46" fill="white"/>
</clipPath>
</defs>
</svg>
